v -0.511548 0.457448 0.500000 
v -0.468247 0.308979 0.500000 
v -0.423992 0.157714 0.500000 
v -0.374857 0.006147 0.500000 
v -0.324192 -0.126485 0.500000 
v -0.272206 -0.239641 0.500000 
v -0.219109 -0.332859 0.500000 
v -0.165118 -0.405759 0.500000 
v -0.110454 -0.458044 0.500000 
v -0.055340 -0.489500 0.500000 
v 0.000000 -0.500000 0.500000 
v 0.055340 -0.489500 0.500000 
v 0.110455 -0.458044 0.500000 
v 0.165118 -0.405759 0.500000 
v 0.219109 -0.332859 0.500000 
v 0.272206 -0.239641 0.500000 
v 0.324192 -0.126485 0.500000 
v 0.374857 0.006147 0.500000 
v 0.423992 0.157714 0.500000 
v 0.468247 0.308979 0.500000 
v 0.511548 0.457448 0.500000 
v -0.427355 1.323473 0.500000 
v -0.384054 1.175004 0.500000 
v -0.341644 1.029972 0.500000 
v -0.302052 0.907843 0.500000 
v -0.261227 0.800971 0.500000 
v -0.219338 0.709792 0.500000 
v -0.176553 0.634679 0.500000 
v -0.133049 0.575938 0.500000 
v -0.089002 0.533808 0.500000 
v -0.044592 0.508461 0.500000 
v 0.000000 0.500000 0.500000 
v 0.044592 0.508461 0.500000 
v 0.089002 0.533808 0.500000 
v 0.133049 0.575938 0.500000 
v 0.176553 0.634679 0.500000 
v 0.219338 0.709792 0.500000 
v 0.261227 0.800971 0.500000 
v 0.302052 0.907843 0.500000 
v 0.341644 1.029972 0.500000 
v 0.384054 1.175004 0.500000 
v 0.427355 1.323473 0.500000 
v -0.427355 1.323473 -0.500000 
v -0.384054 1.175004 -0.500000 
v -0.341644 1.029972 -0.500000 
v -0.302052 0.907843 -0.500000 
v -0.261227 0.800971 -0.500000 
v -0.219338 0.709792 -0.500000 
v -0.176553 0.634679 -0.500000 
v -0.133049 0.575938 -0.500000 
v -0.089002 0.533808 -0.500000 
v -0.044592 0.508461 -0.500000 
v 0.000000 0.500000 -0.500000 
v 0.044592 0.508461 -0.500000 
v 0.089002 0.533808 -0.500000 
v 0.133049 0.575938 -0.500000 
v 0.176553 0.634679 -0.500000 
v 0.219338 0.709792 -0.500000 
v 0.261227 0.800971 -0.500000 
v 0.302052 0.907843 -0.500000 
v 0.341644 1.029972 -0.500000 
v 0.384054 1.175004 -0.500000 
v 0.427355 1.323473 -0.500000 
v -0.511548 0.457448 -0.500000 
v -0.468247 0.308979 -0.500000 
v -0.423992 0.157714 -0.500000 
v -0.374857 0.006147 -0.500000 
v -0.324192 -0.126485 -0.500000 
v -0.272206 -0.239641 -0.500000 
v -0.219109 -0.332859 -0.500000 
v -0.165118 -0.405759 -0.500000 
v -0.110454 -0.458044 -0.500000 
v -0.055340 -0.489500 -0.500000 
v 0.000000 -0.500000 -0.500000 
v 0.055340 -0.489500 -0.500000 
v 0.110455 -0.458044 -0.500000 
v 0.165118 -0.405759 -0.500000 
v 0.219109 -0.332859 -0.500000 
v 0.272206 -0.239641 -0.500000 
v 0.324192 -0.126485 -0.500000 
v 0.374857 0.006147 -0.500000 
v 0.423992 0.157714 -0.500000 
v 0.468247 0.308979 -0.500000 
v 0.511548 0.457448 -0.500000 
vt 0.375000 vt 0.000000
vt 0.387500 vt 0.000000
vt 0.400000 vt 0.000000
vt 0.412500 vt 0.000000
vt 0.425000 vt 0.000000
vt 0.437500 vt 0.000000
vt 0.450000 vt 0.000000
vt 0.462500 vt 0.000000
vt 0.475000 vt 0.000000
vt 0.487500 vt 0.000000
vt 0.500000 vt 0.000000
vt 0.512500 vt 0.000000
vt 0.525000 vt 0.000000
vt 0.537500 vt 0.000000
vt 0.550000 vt 0.000000
vt 0.562500 vt 0.000000
vt 0.575000 vt 0.000000
vt 0.587500 vt 0.000000
vt 0.600000 vt 0.000000
vt 0.612500 vt 0.000000
vt 0.625000 vt 0.000000
vt 0.375000 vt 0.250000
vt 0.387500 vt 0.250000
vt 0.400000 vt 0.250000
vt 0.412500 vt 0.250000
vt 0.425000 vt 0.250000
vt 0.437500 vt 0.250000
vt 0.450000 vt 0.250000
vt 0.462500 vt 0.250000
vt 0.475000 vt 0.250000
vt 0.487500 vt 0.250000
vt 0.500000 vt 0.250000
vt 0.512500 vt 0.250000
vt 0.525000 vt 0.250000
vt 0.537500 vt 0.250000
vt 0.550000 vt 0.250000
vt 0.562500 vt 0.250000
vt 0.575000 vt 0.250000
vt 0.587500 vt 0.250000
vt 0.600000 vt 0.250000
vt 0.612500 vt 0.250000
vt 0.625000 vt 0.250000
vt 0.375000 vt 0.500000
vt 0.387500 vt 0.500000
vt 0.400000 vt 0.500000
vt 0.412500 vt 0.500000
vt 0.425000 vt 0.500000
vt 0.437500 vt 0.500000
vt 0.450000 vt 0.500000
vt 0.462500 vt 0.500000
vt 0.475000 vt 0.500000
vt 0.487500 vt 0.500000
vt 0.500000 vt 0.500000
vt 0.512500 vt 0.500000
vt 0.525000 vt 0.500000
vt 0.537500 vt 0.500000
vt 0.550000 vt 0.500000
vt 0.562500 vt 0.500000
vt 0.575000 vt 0.500000
vt 0.587500 vt 0.500000
vt 0.600000 vt 0.500000
vt 0.612500 vt 0.500000
vt 0.625000 vt 0.500000
vt 0.375000 vt 0.750000
vt 0.387500 vt 0.750000
vt 0.400000 vt 0.750000
vt 0.412500 vt 0.750000
vt 0.425000 vt 0.750000
vt 0.437500 vt 0.750000
vt 0.450000 vt 0.750000
vt 0.462500 vt 0.750000
vt 0.475000 vt 0.750000
vt 0.487500 vt 0.750000
vt 0.500000 vt 0.750000
vt 0.512500 vt 0.750000
vt 0.525000 vt 0.750000
vt 0.537500 vt 0.750000
vt 0.550000 vt 0.750000
vt 0.562500 vt 0.750000
vt 0.575000 vt 0.750000
vt 0.587500 vt 0.750000
vt 0.600000 vt 0.750000
vt 0.612500 vt 0.750000
vt 0.625000 vt 0.750000
vt 0.375000 vt 1.000000
vt 0.387500 vt 1.000000
vt 0.400000 vt 1.000000
vt 0.412500 vt 1.000000
vt 0.425000 vt 1.000000
vt 0.437500 vt 1.000000
vt 0.450000 vt 1.000000
vt 0.462500 vt 1.000000
vt 0.475000 vt 1.000000
vt 0.487500 vt 1.000000
vt 0.500000 vt 1.000000
vt 0.512500 vt 1.000000
vt 0.525000 vt 1.000000
vt 0.537500 vt 1.000000
vt 0.550000 vt 1.000000
vt 0.562500 vt 1.000000
vt 0.575000 vt 1.000000
vt 0.587500 vt 1.000000
vt 0.600000 vt 1.000000
vt 0.612500 vt 1.000000
vt 0.625000 vt 1.000000
vt 0.875000 vt 0.000000
vt 0.875000 vt 0.250000
vt 0.125000 vt 0.000000
vt 0.125000 vt 0.250000
vn -0.000001 0.000000 1.000000
vn -0.000000 0.000000 1.000000
vn 0.000000 0.000000 1.000000
vn -0.000001 0.000000 1.000000
vn -0.000000 0.000000 1.000000
vn 0.000001 0.000000 1.000000
vn 0.000000 0.000000 1.000000
vn 0.000000 0.000000 1.000000
vn 0.000001 0.000000 1.000000
vn 0.000000 0.000000 1.000000
vn 0.000000 0.000000 1.000000
vn 0.000000 0.000000 1.000000
vn 0.000000 0.000000 1.000000
vn 0.000000 0.000000 1.000000
vn 0.000000 0.000000 1.000000
vn 0.000000 0.000000 1.000000
vn 0.000000 0.000000 1.000000
vn 0.000000 0.000000 1.000000
vn 0.000000 0.000000 1.000000
vn 0.000000 0.000000 1.000000
vn 0.000000 0.000000 1.000000
vn 0.000000 0.000000 1.000000
vn 0.000000 0.000000 1.000000
vn 0.000000 0.000000 1.000000
vn 0.000000 0.000000 1.000000
vn 0.000000 0.000000 1.000000
vn 0.000000 0.000000 1.000000
vn 0.000000 0.000000 1.000000
vn 0.000000 0.000000 1.000000
vn 0.000000 0.000000 1.000000
vn 0.000000 0.000000 1.000000
vn 0.000000 0.000000 1.000000
vn 0.000000 0.000000 1.000000
vn 0.000000 0.000000 1.000000
vn 0.000000 0.000000 1.000000
vn 0.000000 0.000000 1.000000
vn 0.000000 0.000000 1.000000
vn 0.000000 0.000000 1.000000
vn 0.000000 0.000000 1.000000
vn 0.000000 0.000000 1.000000
vn 0.000000 0.000000 1.000000
vn 0.000000 0.000000 1.000000
vn 0.000000 0.000000 1.000000
vn 0.000000 0.000000 1.000000
vn 0.000000 0.000000 1.000000
vn 0.000000 0.000000 1.000000
vn 0.000000 0.000000 1.000000
vn 0.000000 0.000000 1.000000
vn 0.000000 0.000000 1.000000
vn -0.000000 0.000000 1.000000
vn -0.000000 0.000000 1.000000
vn 0.000000 0.000000 1.000000
vn -0.000000 0.000000 1.000000
vn -0.000000 0.000000 1.000000
vn -0.000000 0.000000 1.000000
vn -0.000000 0.000000 1.000000
vn -0.000000 0.000000 1.000000
vn 0.000000 0.000000 1.000000
vn 0.000000 0.000000 1.000000
vn -0.000000 0.000000 1.000000
vn 0.000000 0.000000 1.000000
vn 0.000001 0.000000 1.000000
vn 0.000001 0.000000 1.000000
vn 0.000000 0.000000 1.000000
vn 0.000001 0.000000 1.000000
vn 0.000000 0.000000 1.000000
vn 0.000001 0.000000 1.000000
vn 0.000001 0.000000 1.000000
vn 0.000000 0.000000 1.000000
vn 0.000001 0.000000 1.000000
vn 0.000000 0.000000 1.000000
vn 0.000001 0.000000 1.000000
vn 0.000001 0.000000 1.000000
vn 0.000000 0.000000 1.000000
vn 0.000001 0.000000 1.000000
vn 0.000000 0.000000 1.000000
vn 0.000000 0.000000 1.000000
vn 0.000000 0.000000 1.000000
vn 0.000000 0.000000 1.000000
vn 0.000001 0.000000 1.000000
vn 0.960004 0.279987 0.000000
vn 0.959906 0.280321 0.000000
vn 0.959906 0.280321 0.000000
vn 0.960004 0.279987 0.000000
vn 0.959906 0.280321 0.000000
vn 0.955981 0.293428 0.000000
vn 0.955981 0.293428 0.000000
vn 0.959906 0.280321 0.000000
vn 0.955981 0.293428 0.000000
vn 0.943516 0.331327 0.000000
vn 0.943516 0.331327 0.000000
vn 0.955981 0.293428 0.000000
vn 0.943516 0.331327 0.000000
vn 0.922757 0.385382 0.000000
vn 0.922757 0.385382 0.000000
vn 0.943516 0.331327 0.000000
vn 0.922757 0.385382 0.000000
vn 0.891127 0.453753 0.000000
vn 0.891127 0.453753 0.000000
vn 0.922757 0.385382 0.000000
vn 0.891127 0.453753 0.000000
vn 0.840494 0.541821 0.000000
vn 0.840494 0.541821 0.000000
vn 0.891127 0.453753 0.000000
vn 0.840494 0.541821 0.000000
vn 0.755209 0.655484 0.000000
vn 0.755209 0.655484 0.000000
vn 0.840494 0.541821 0.000000
vn 0.755209 0.655484 0.000000
vn 0.606505 0.795080 0.000000
vn 0.606505 0.795080 0.000000
vn 0.755209 0.655484 0.000000
vn 0.606505 0.795080 0.000000
vn 0.355096 0.934830 0.000000
vn 0.355096 0.934830 0.000000
vn 0.606505 0.795080 0.000000
vn 0.355096 0.934830 0.000000
vn 0.000000 1.000000 0.000000
vn 0.000000 1.000000 0.000000
vn 0.355096 0.934830 0.000000
vn 0.000000 1.000000 0.000000
vn -0.355096 0.934830 0.000000
vn -0.355096 0.934830 0.000000
vn 0.000000 1.000000 0.000000
vn -0.355096 0.934830 0.000000
vn -0.606505 0.795080 0.000000
vn -0.606505 0.795080 0.000000
vn -0.355096 0.934830 0.000000
vn -0.606505 0.795080 0.000000
vn -0.755209 0.655484 0.000000
vn -0.755209 0.655484 0.000000
vn -0.606505 0.795080 0.000000
vn -0.755209 0.655484 0.000000
vn -0.840494 0.541821 0.000000
vn -0.840494 0.541821 0.000000
vn -0.755209 0.655484 0.000000
vn -0.840494 0.541821 0.000000
vn -0.891127 0.453753 0.000000
vn -0.891127 0.453753 0.000000
vn -0.840494 0.541821 0.000000
vn -0.891127 0.453753 0.000000
vn -0.922757 0.385381 0.000000
vn -0.922757 0.385381 0.000000
vn -0.891127 0.453753 0.000000
vn -0.922757 0.385381 0.000000
vn -0.943516 0.331327 0.000000
vn -0.943516 0.331327 0.000000
vn -0.922757 0.385381 0.000000
vn -0.943516 0.331327 0.000000
vn -0.955981 0.293428 0.000000
vn -0.955981 0.293428 0.000000
vn -0.943516 0.331327 0.000000
vn -0.955981 0.293428 0.000000
vn -0.959906 0.280321 0.000000
vn -0.959906 0.280321 0.000000
vn -0.955981 0.293428 0.000000
vn -0.959906 0.280321 0.000000
vn -0.960004 0.279987 0.000000
vn -0.960004 0.279987 0.000000
vn -0.959906 0.280321 0.000000
vn -0.000001 0.000000 -1.000000
vn 0.000000 0.000000 -1.000000
vn -0.000000 0.000000 -1.000000
vn -0.000001 0.000000 -1.000000
vn 0.000000 0.000000 -1.000000
vn -0.000000 0.000000 -1.000000
vn 0.000000 0.000000 -1.000000
vn -0.000000 0.000000 -1.000000
vn -0.000000 0.000000 -1.000000
vn -0.000001 0.000000 -1.000000
vn -0.000001 0.000000 -1.000000
vn 0.000000 0.000000 -1.000000
vn -0.000001 0.000000 -1.000000
vn -0.000000 0.000000 -1.000000
vn -0.000001 0.000000 -1.000000
vn -0.000001 0.000000 -1.000000
vn -0.000000 0.000000 -1.000000
vn 0.000000 0.000000 -1.000000
vn 0.000000 0.000000 -1.000000
vn -0.000001 0.000000 -1.000000
vn 0.000000 0.000000 -1.000000
vn 0.000000 0.000000 -1.000000
vn 0.000000 0.000000 -1.000000
vn 0.000000 0.000000 -1.000000
vn 0.000000 0.000000 -1.000000
vn 0.000000 0.000000 -1.000000
vn 0.000000 0.000000 -1.000000
vn 0.000000 0.000000 -1.000000
vn 0.000000 0.000000 -1.000000
vn -0.000001 0.000000 -1.000000
vn 0.000000 0.000000 -1.000000
vn 0.000000 0.000000 -1.000000
vn -0.000001 0.000000 -1.000000
vn -0.000000 0.000000 -1.000000
vn -0.000001 0.000000 -1.000000
vn 0.000000 0.000000 -1.000000
vn -0.000000 0.000000 -1.000000
vn 0.000000 0.000000 -1.000000
vn 0.000000 0.000000 -1.000000
vn -0.000001 0.000000 -1.000000
vn 0.000000 0.000000 -1.000000
vn 0.000000 0.000000 -1.000000
vn 0.000000 0.000000 -1.000000
vn 0.000000 0.000000 -1.000000
vn 0.000000 0.000000 -1.000000
vn 0.000000 0.000000 -1.000000
vn 0.000000 0.000000 -1.000000
vn 0.000000 0.000000 -1.000000
vn 0.000000 0.000000 -1.000000
vn 0.000000 0.000000 -1.000000
vn 0.000000 0.000000 -1.000000
vn 0.000000 0.000000 -1.000000
vn 0.000000 0.000000 -1.000000
vn 0.000000 0.000000 -1.000000
vn 0.000000 0.000000 -1.000000
vn 0.000000 0.000000 -1.000000
vn 0.000000 0.000000 -1.000000
vn 0.000000 0.000000 -1.000000
vn 0.000000 0.000000 -1.000000
vn 0.000000 0.000000 -1.000000
vn 0.000000 0.000000 -1.000000
vn 0.000000 0.000000 -1.000000
vn 0.000000 0.000000 -1.000000
vn 0.000000 0.000000 -1.000000
vn 0.000000 0.000000 -1.000000
vn 0.000000 0.000000 -1.000000
vn 0.000000 0.000000 -1.000000
vn 0.000000 0.000000 -1.000000
vn 0.000000 0.000000 -1.000000
vn 0.000000 0.000000 -1.000000
vn 0.000000 0.000000 -1.000000
vn 0.000000 0.000000 -1.000000
vn 0.000000 0.000000 -1.000000
vn 0.000000 0.000000 -1.000000
vn 0.000000 0.000000 -1.000000
vn 0.000000 0.000000 -1.000000
vn 0.000000 0.000000 -1.000000
vn 0.000000 0.000000 -1.000000
vn 0.000000 0.000000 -1.000000
vn 0.000000 0.000000 -1.000000
vn -0.960004 -0.279987 0.000000
vn -0.959885 -0.280393 0.000000
vn -0.959885 -0.280393 0.000000
vn -0.960004 -0.279987 0.000000
vn -0.959885 -0.280393 0.000000
vn -0.955592 -0.294694 0.000000
vn -0.955592 -0.294694 0.000000
vn -0.959885 -0.280393 0.000000
vn -0.955592 -0.294694 0.000000
vn -0.943516 -0.331327 0.000000
vn -0.943516 -0.331327 0.000000
vn -0.955592 -0.294694 0.000000
vn -0.943516 -0.331327 0.000000
vn -0.922757 -0.385382 0.000000
vn -0.922757 -0.385382 0.000000
vn -0.943516 -0.331327 0.000000
vn -0.922757 -0.385382 0.000000
vn -0.891127 -0.453753 0.000000
vn -0.891127 -0.453753 0.000000
vn -0.922757 -0.385382 0.000000
vn -0.891127 -0.453753 0.000000
vn -0.840494 -0.541821 0.000000
vn -0.840494 -0.541821 0.000000
vn -0.891127 -0.453753 0.000000
vn -0.840494 -0.541821 0.000000
vn -0.755209 -0.655484 0.000000
vn -0.755209 -0.655484 0.000000
vn -0.840494 -0.541821 0.000000
vn -0.755209 -0.655484 0.000000
vn -0.606505 -0.795080 0.000000
vn -0.606505 -0.795080 0.000000
vn -0.755209 -0.655484 0.000000
vn -0.606505 -0.795080 0.000000
vn -0.355096 -0.934830 0.000000
vn -0.355096 -0.934830 0.000000
vn -0.606505 -0.795080 0.000000
vn -0.355096 -0.934830 0.000000
vn 0.000000 -1.000000 0.000000
vn 0.000000 -1.000000 0.000000
vn -0.355096 -0.934830 0.000000
vn 0.000000 -1.000000 0.000000
vn 0.355096 -0.934830 0.000000
vn 0.355096 -0.934830 0.000000
vn 0.000000 -1.000000 0.000000
vn 0.355096 -0.934830 0.000000
vn 0.606505 -0.795079 0.000000
vn 0.606505 -0.795079 0.000000
vn 0.355096 -0.934830 0.000000
vn 0.606505 -0.795079 0.000000
vn 0.755209 -0.655484 0.000000
vn 0.755209 -0.655484 0.000000
vn 0.606505 -0.795079 0.000000
vn 0.755209 -0.655484 0.000000
vn 0.840494 -0.541821 0.000000
vn 0.840494 -0.541821 0.000000
vn 0.755209 -0.655484 0.000000
vn 0.840494 -0.541821 0.000000
vn 0.891127 -0.453753 0.000000
vn 0.891127 -0.453753 0.000000
vn 0.840494 -0.541821 0.000000
vn 0.891127 -0.453753 0.000000
vn 0.922757 -0.385382 0.000000
vn 0.922757 -0.385382 0.000000
vn 0.891127 -0.453753 0.000000
vn 0.922757 -0.385382 0.000000
vn 0.943516 -0.331327 0.000000
vn 0.943516 -0.331327 0.000000
vn 0.922757 -0.385382 0.000000
vn 0.943516 -0.331327 0.000000
vn 0.955592 -0.294694 0.000000
vn 0.955592 -0.294694 0.000000
vn 0.943516 -0.331327 0.000000
vn 0.955592 -0.294694 0.000000
vn 0.959885 -0.280393 0.000000
vn 0.959885 -0.280393 0.000000
vn 0.955592 -0.294694 0.000000
vn 0.959885 -0.280393 0.000000
vn 0.960004 -0.279987 0.000000
vn 0.960004 -0.279987 0.000000
vn 0.959885 -0.280393 0.000000
vn 0.995308 0.096761 0.000000
vn 0.995308 0.096761 0.000000
vn 0.995308 0.096761 0.000000
vn 0.995308 0.096761 0.000000
vn -0.995308 0.096761 0.000000
vn -0.995308 0.096761 0.000000
vn -0.995308 0.096761 0.000000
vn -0.995308 0.096761 0.000000
f 1/1/4 2/2/3 23/23/2 22/22/1 
f 2/2/8 3/3/7 24/24/6 23/23/5 
f 3/3/12 4/4/11 25/25/10 24/24/9 
f 4/4/16 5/5/15 26/26/14 25/25/13 
f 5/5/20 6/6/19 27/27/18 26/26/17 
f 6/6/24 7/7/23 28/28/22 27/27/21 
f 7/7/28 8/8/27 29/29/26 28/28/25 
f 8/8/32 9/9/31 30/30/30 29/29/29 
f 9/9/36 10/10/35 31/31/34 30/30/33 
f 10/10/40 11/11/39 32/32/38 31/31/37 
f 11/11/44 12/12/43 33/33/42 32/32/41 
f 12/12/48 13/13/47 34/34/46 33/33/45 
f 13/13/52 14/14/51 35/35/50 34/34/49 
f 14/14/56 15/15/55 36/36/54 35/35/53 
f 15/15/60 16/16/59 37/37/58 36/36/57 
f 16/16/64 17/17/63 38/38/62 37/37/61 
f 17/17/68 18/18/67 39/39/66 38/38/65 
f 18/18/72 19/19/71 40/40/70 39/39/69 
f 19/19/76 20/20/75 41/41/74 40/40/73 
f 20/20/80 21/21/79 42/42/78 41/41/77 
f 22/22/84 23/23/83 44/44/82 43/43/81 
f 23/23/88 24/24/87 45/45/86 44/44/85 
f 24/24/92 25/25/91 46/46/90 45/45/89 
f 25/25/96 26/26/95 47/47/94 46/46/93 
f 26/26/100 27/27/99 48/48/98 47/47/97 
f 27/27/104 28/28/103 49/49/102 48/48/101 
f 28/28/108 29/29/107 50/50/106 49/49/105 
f 29/29/112 30/30/111 51/51/110 50/50/109 
f 30/30/116 31/31/115 52/52/114 51/51/113 
f 31/31/120 32/32/119 53/53/118 52/52/117 
f 32/32/124 33/33/123 54/54/122 53/53/121 
f 33/33/128 34/34/127 55/55/126 54/54/125 
f 34/34/132 35/35/131 56/56/130 55/55/129 
f 35/35/136 36/36/135 57/57/134 56/56/133 
f 36/36/140 37/37/139 58/58/138 57/57/137 
f 37/37/144 38/38/143 59/59/142 58/58/141 
f 38/38/148 39/39/147 60/60/146 59/59/145 
f 39/39/152 40/40/151 61/61/150 60/60/149 
f 40/40/156 41/41/155 62/62/154 61/61/153 
f 41/41/160 42/42/159 63/63/158 62/62/157 
f 43/43/164 44/44/163 65/65/162 64/64/161 
f 44/44/168 45/45/167 66/66/166 65/65/165 
f 45/45/172 46/46/171 67/67/170 66/66/169 
f 46/46/176 47/47/175 68/68/174 67/67/173 
f 47/47/180 48/48/179 69/69/178 68/68/177 
f 48/48/184 49/49/183 70/70/182 69/69/181 
f 49/49/188 50/50/187 71/71/186 70/70/185 
f 50/50/192 51/51/191 72/72/190 71/71/189 
f 51/51/196 52/52/195 73/73/194 72/72/193 
f 52/52/200 53/53/199 74/74/198 73/73/197 
f 53/53/204 54/54/203 75/75/202 74/74/201 
f 54/54/208 55/55/207 76/76/206 75/75/205 
f 55/55/212 56/56/211 77/77/210 76/76/209 
f 56/56/216 57/57/215 78/78/214 77/77/213 
f 57/57/220 58/58/219 79/79/218 78/78/217 
f 58/58/224 59/59/223 80/80/222 79/79/221 
f 59/59/228 60/60/227 81/81/226 80/80/225 
f 60/60/232 61/61/231 82/82/230 81/81/229 
f 61/61/236 62/62/235 83/83/234 82/82/233 
f 62/62/240 63/63/239 84/84/238 83/83/237 
f 64/64/244 65/65/243 2/86/242 1/85/241 
f 65/65/248 66/66/247 3/87/246 2/86/245 
f 66/66/252 67/67/251 4/88/250 3/87/249 
f 67/67/256 68/68/255 5/89/254 4/88/253 
f 68/68/260 69/69/259 6/90/258 5/89/257 
f 69/69/264 70/70/263 7/91/262 6/90/261 
f 70/70/268 71/71/267 8/92/266 7/91/265 
f 71/71/272 72/72/271 9/93/270 8/92/269 
f 72/72/276 73/73/275 10/94/274 9/93/273 
f 73/73/280 74/74/279 11/95/278 10/94/277 
f 74/74/284 75/75/283 12/96/282 11/95/281 
f 75/75/288 76/76/287 13/97/286 12/96/285 
f 76/76/292 77/77/291 14/98/290 13/97/289 
f 77/77/296 78/78/295 15/99/294 14/98/293 
f 78/78/300 79/79/299 16/100/298 15/99/297 
f 79/79/304 80/80/303 17/101/302 16/100/301 
f 80/80/308 81/81/307 18/102/306 17/101/305 
f 81/81/312 82/82/311 19/103/310 18/102/309 
f 82/82/316 83/83/315 20/104/314 19/103/313 
f 83/83/320 84/84/319 21/105/318 20/104/317 
f 21/21/324 84/106/323 63/107/322 42/42/321 
f 64/108/328 1/1/327 22/22/326 43/109/325 
